<?xml version="1.0" encoding="utf-8" ?>
<svg xmlns="http://www.w3.org/2000/svg" xmlns:xlink="http://www.w3.org/1999/xlink" width="205" height="225">
	<rect fill="white" fill-opacity="0" width="205" height="225"/>
	<clipPath id="cl_c">
		<rect width="204.16" height="225"/>
	</clipPath>
	<g clip-path="url(#cl_c)">
		<path fill="white" d="M44.706 36.053L192.492 36.053L192.492 129.219L44.706 129.219L44.706 36.053Z"/>
		<path fill="none" stroke="black" stroke-width="1" stroke-miterlimit="4" d="M50.6174 129.219L50.6174 133.219"/>
		<path fill="none" stroke="black" stroke-width="1" stroke-miterlimit="4" d="M56.5289 129.219L56.5289 133.219"/>
		<path fill="none" stroke="black" stroke-width="1" stroke-miterlimit="4" d="M62.4403 129.219L62.4403 133.219"/>
		<path fill="none" stroke="black" stroke-width="1" stroke-miterlimit="4" d="M68.3518 129.219L68.3518 133.219"/>
		<path fill="none" stroke="black" stroke-width="1" stroke-miterlimit="4" d="M80.1746 129.219L80.1746 133.219"/>
		<path fill="none" stroke="black" stroke-width="1" stroke-miterlimit="4" d="M86.0861 129.219L86.0861 133.219"/>
		<path fill="none" stroke="black" stroke-width="1" stroke-miterlimit="4" d="M91.9975 129.219L91.9975 133.219"/>
		<path fill="none" stroke="black" stroke-width="1" stroke-miterlimit="4" d="M97.909 129.219L97.909 133.219"/>
		<path fill="none" stroke="black" stroke-width="1" stroke-miterlimit="4" d="M109.732 129.219L109.732 133.219"/>
		<path fill="none" stroke="black" stroke-width="1" stroke-miterlimit="4" d="M115.643 129.219L115.643 133.219"/>
		<path fill="none" stroke="black" stroke-width="1" stroke-miterlimit="4" d="M121.555 129.219L121.555 133.219"/>
		<path fill="none" stroke="black" stroke-width="1" stroke-miterlimit="4" d="M127.466 129.219L127.466 133.219"/>
		<path fill="none" stroke="black" stroke-width="1" stroke-miterlimit="4" d="M139.289 129.219L139.289 133.219"/>
		<path fill="none" stroke="black" stroke-width="1" stroke-miterlimit="4" d="M145.201 129.219L145.201 133.219"/>
		<path fill="none" stroke="black" stroke-width="1" stroke-miterlimit="4" d="M151.112 129.219L151.112 133.219"/>
		<path fill="none" stroke="black" stroke-width="1" stroke-miterlimit="4" d="M157.023 129.219L157.023 133.219"/>
		<path fill="none" stroke="black" stroke-width="1" stroke-miterlimit="4" d="M168.846 129.219L168.846 133.219"/>
		<path fill="none" stroke="black" stroke-width="1" stroke-miterlimit="4" d="M174.758 129.219L174.758 133.219"/>
		<path fill="none" stroke="black" stroke-width="1" stroke-miterlimit="4" d="M180.669 129.219L180.669 133.219"/>
		<path fill="none" stroke="black" stroke-width="1" stroke-miterlimit="4" d="M186.581 129.219L186.581 133.219"/>
		<path fill="none" stroke="black" stroke-width="1" stroke-miterlimit="4" d="M44.706 121.455L42.206 121.455"/>
		<path fill="none" stroke="black" stroke-width="1" stroke-miterlimit="4" d="M44.706 105.927L42.206 105.927"/>
		<path fill="none" stroke="black" stroke-width="1" stroke-miterlimit="4" d="M44.706 90.3995L42.206 90.3995"/>
		<path fill="none" stroke="black" stroke-width="1" stroke-miterlimit="4" d="M44.706 74.872L42.206 74.872"/>
		<path fill="none" stroke="black" stroke-width="1" stroke-miterlimit="4" d="M44.706 59.3444L42.206 59.3444"/>
		<path fill="none" stroke="black" stroke-width="1" stroke-miterlimit="4" d="M44.706 43.8168L42.206 43.8168"/>
		<text transform="translate(44.706 146.219)" font-size="8" font-family="Segoe UI" x="-2.15625, " y="0, ">
				1
		</text>
		<text transform="translate(74.2632 146.219)" font-size="8" font-family="Segoe UI" x="-2.15625, " y="0, ">
				2
		</text>
		<text transform="translate(103.82 146.219)" font-size="8" font-family="Segoe UI" x="-2.15625, " y="0, ">
				3
		</text>
		<text transform="translate(133.378 146.219)" font-size="8" font-family="Segoe UI" x="-2.15625, " y="0, ">
				4
		</text>
		<text transform="translate(162.935 146.219)" font-size="8" font-family="Segoe UI" x="-2.15625, " y="0, ">
				5
		</text>
		<text transform="translate(192.492 146.219)" font-size="8" font-family="Segoe UI" x="-2.15625, " y="0, ">
				6
		</text>
		<path fill="none" stroke="#C8C8C8" stroke-width="1" stroke-miterlimit="4" d="M44.706 36.053L44.706 129.219"/>
		<path fill="none" stroke="#C8C8C8" stroke-width="1" stroke-miterlimit="4" d="M74.2632 36.053L74.2632 129.219"/>
		<path fill="none" stroke="#C8C8C8" stroke-width="1" stroke-miterlimit="4" d="M103.82 36.053L103.82 129.219"/>
		<path fill="none" stroke="#C8C8C8" stroke-width="1" stroke-miterlimit="4" d="M133.378 36.053L133.378 129.219"/>
		<path fill="none" stroke="#C8C8C8" stroke-width="1" stroke-miterlimit="4" d="M162.935 36.053L162.935 129.219"/>
		<path fill="none" stroke="#C8C8C8" stroke-width="1" stroke-miterlimit="4" d="M192.492 36.053L192.492 129.219"/>
		<path fill="none" stroke="black" stroke-width="1" stroke-miterlimit="4" d="M44.706 129.219L44.706 136.219"/>
		<path fill="none" stroke="black" stroke-width="1" stroke-miterlimit="4" d="M74.2632 129.219L74.2632 136.219"/>
		<path fill="none" stroke="black" stroke-width="1" stroke-miterlimit="4" d="M103.82 129.219L103.82 136.219"/>
		<path fill="none" stroke="black" stroke-width="1" stroke-miterlimit="4" d="M133.378 129.219L133.378 136.219"/>
		<path fill="none" stroke="black" stroke-width="1" stroke-miterlimit="4" d="M162.935 129.219L162.935 136.219"/>
		<path fill="none" stroke="black" stroke-width="1" stroke-miterlimit="4" d="M192.492 129.219L192.492 136.219"/>
		<text transform="translate(118.599 159.622)" font-size="8" font-family="Segoe UI" x="-35.712891, -31.947266, -30.009766, -25.482422, -21.298828, -17.228516, -14.447266, -12.255859, -6.6464844, -4.7089844, -2.7714844, 1.7558594, 4.4667969, 6.4042969, 11.091797, 15.619141, 17.810547, 21.576172, 25.759766, 29.591797, 33.775391, " y="0, ">
				Linear Dilution Level
		</text>
		<text transform="translate(34.706 129.219)" font-size="8" font-family="Segoe UI" x="-18.371094, -15.171875, -10.859375, -6.546875, " y="0, ">
				-10%
		</text>
		<text transform="translate(34.706 113.691)" font-size="8" font-family="Segoe UI" x="-10.859375, -6.546875, " y="0, ">
				0%
		</text>
		<text transform="translate(34.706 98.1633)" font-size="8" font-family="Segoe UI" x="-15.171875, -10.859375, -6.546875, " y="0, ">
				10%
		</text>
		<text transform="translate(34.706 82.6358)" font-size="8" font-family="Segoe UI" x="-15.171875, -10.859375, -6.546875, " y="0, ">
				20%
		</text>
		<text transform="translate(34.706 67.1082)" font-size="8" font-family="Segoe UI" x="-15.171875, -10.859375, -6.546875, " y="0, ">
				30%
		</text>
		<text transform="translate(34.706 51.5806)" font-size="8" font-family="Segoe UI" x="-15.171875, -10.859375, -6.546875, " y="0, ">
				40%
		</text>
		<text transform="translate(34.706 36.053)" font-size="8" font-family="Segoe UI" x="-15.171875, -10.859375, -6.546875, " y="0, ">
				50%
		</text>
		<path fill="none" stroke="#C8C8C8" stroke-width="1" stroke-miterlimit="4" d="M44.706 129.219L192.492 129.219"/>
		<path fill="none" stroke="#C8C8C8" stroke-width="1" stroke-miterlimit="4" d="M44.706 113.691L192.492 113.691"/>
		<path fill="none" stroke="#C8C8C8" stroke-width="1" stroke-miterlimit="4" d="M44.706 98.1633L192.492 98.1633"/>
		<path fill="none" stroke="#C8C8C8" stroke-width="1" stroke-miterlimit="4" d="M44.706 82.6358L192.492 82.6358"/>
		<path fill="none" stroke="#C8C8C8" stroke-width="1" stroke-miterlimit="4" d="M44.706 67.1082L192.492 67.1082"/>
		<path fill="none" stroke="#C8C8C8" stroke-width="1" stroke-miterlimit="4" d="M44.706 51.5806L192.492 51.5806"/>
		<path fill="none" stroke="#C8C8C8" stroke-width="1" stroke-miterlimit="4" d="M44.706 36.053L192.492 36.053"/>
		<path fill="none" stroke="black" stroke-width="1" stroke-miterlimit="4" d="M44.706 129.219L39.706 129.219"/>
		<path fill="none" stroke="black" stroke-width="1" stroke-miterlimit="4" d="M44.706 113.691L39.706 113.691"/>
		<path fill="none" stroke="black" stroke-width="1" stroke-miterlimit="4" d="M44.706 98.1633L39.706 98.1633"/>
		<path fill="none" stroke="black" stroke-width="1" stroke-miterlimit="4" d="M44.706 82.6358L39.706 82.6358"/>
		<path fill="none" stroke="black" stroke-width="1" stroke-miterlimit="4" d="M44.706 67.1082L39.706 67.1082"/>
		<path fill="none" stroke="black" stroke-width="1" stroke-miterlimit="4" d="M44.706 51.5806L39.706 51.5806"/>
		<path fill="none" stroke="black" stroke-width="1" stroke-miterlimit="4" d="M44.706 36.053L39.706 36.053"/>
		<text transform="matrix(-4.37114e-08 -1 1 -4.37114e-08 14 82.6358)" font-size="8" font-family="Segoe UI" x="-11.541016, -6.5722656, -2.5019531, -0.56445313, 3.9628906, 8.1464844, " y="0, ">
				Values
		</text>
	</g>
	<clipPath id="cl_d">
		<rect x="44.706001" y="36.053001" width="147.78601" height="93.165504"/>
	</clipPath>
	<g clip-path="url(#cl_d)">
		<path fill="blue" d="M44.706 127.719L45.706 127.719L45.706 130.719L44.706 130.719L44.706 127.719ZM46.706 127.719L47.706 127.719L47.706 130.719L46.706 130.719L46.706 127.719ZM48.706 127.719L49.706 127.719L49.706 130.719L48.706 130.719L48.706 127.719ZM50.706 127.719L51.706 127.719L51.706 130.719L50.706 130.719L50.706 127.719ZM52.706 127.719L53.706 127.719L53.706 130.719L52.706 130.719L52.706 127.719ZM54.706 127.719L55.706 127.719L55.706 130.719L54.706 130.719L54.706 127.719ZM56.706 127.719L57.706 127.719L57.706 130.719L56.706 130.719L56.706 127.719ZM58.706 127.719L59.706 127.719L59.706 130.719L58.706 130.719L58.706 127.719ZM60.706 127.719L61.706 127.719L61.706 130.719L60.706 130.719L60.706 127.719ZM62.706 127.719L63.706 127.719L63.706 130.719L62.706 130.719L62.706 127.719ZM64.706 127.719L65.706 127.719L65.706 130.719L64.706 130.719L64.706 127.719ZM66.706 127.719L67.706 127.719L67.706 130.719L66.706 130.719L66.706 127.719ZM68.706 127.719L69.706 127.719L69.706 130.719L68.706 130.719L68.706 127.719ZM70.706 127.719L71.706 127.719L71.706 130.719L70.706 130.719L70.706 127.719ZM72.706 127.719L73.706 127.719L73.706 130.719L72.706 130.719L72.706 127.719ZM74.706 127.719L75.706 127.719L75.706 130.719L74.706 130.719L74.706 127.719ZM76.706 127.719L77.706 127.719L77.706 130.719L76.706 130.719L76.706 127.719ZM78.706 127.719L79.706 127.719L79.706 130.719L78.706 130.719L78.706 127.719ZM80.706 127.719L81.706 127.719L81.706 130.719L80.706 130.719L80.706 127.719ZM82.706 127.719L83.706 127.719L83.706 130.719L82.706 130.719L82.706 127.719ZM84.706 127.719L85.706 127.719L85.706 130.719L84.706 130.719L84.706 127.719ZM86.706 127.719L87.706 127.719L87.706 130.719L86.706 130.719L86.706 127.719ZM88.706 127.719L89.706 127.719L89.706 130.719L88.706 130.719L88.706 127.719ZM90.706 127.719L91.706 127.719L91.706 130.719L90.706 130.719L90.706 127.719ZM92.706 127.719L93.706 127.719L93.706 130.719L92.706 130.719L92.706 127.719ZM94.706 127.719L95.706 127.719L95.706 130.719L94.706 130.719L94.706 127.719ZM96.706 127.719L97.706 127.719L97.706 130.719L96.706 130.719L96.706 127.719ZM98.706 127.719L99.706 127.719L99.706 130.719L98.706 130.719L98.706 127.719ZM100.706 127.719L101.706 127.719L101.706 130.719L100.706 130.719L100.706 127.719ZM102.706 127.719L103.706 127.719L103.706 130.719L102.706 130.719L102.706 127.719ZM104.706 127.719L105.706 127.719L105.706 130.719L104.706 130.719L104.706 127.719ZM106.706 127.719L107.706 127.719L107.706 130.719L106.706 130.719L106.706 127.719ZM108.706 127.719L109.706 127.719L109.706 130.719L108.706 130.719L108.706 127.719ZM110.706 127.719L111.706 127.719L111.706 130.719L110.706 130.719L110.706 127.719ZM112.706 127.719L113.706 127.719L113.706 130.719L112.706 130.719L112.706 127.719ZM114.706 127.719L115.706 127.719L115.706 130.719L114.706 130.719L114.706 127.719ZM116.706 127.719L117.706 127.719L117.706 130.719L116.706 130.719L116.706 127.719ZM118.706 127.719L119.706 127.719L119.706 130.719L118.706 130.719L118.706 127.719ZM120.706 127.719L121.706 127.719L121.706 130.719L120.706 130.719L120.706 127.719ZM122.706 127.719L123.706 127.719L123.706 130.719L122.706 130.719L122.706 127.719ZM124.706 127.719L125.706 127.719L125.706 130.719L124.706 130.719L124.706 127.719ZM126.706 127.719L127.706 127.719L127.706 130.719L126.706 130.719L126.706 127.719ZM128.706 127.719L129.706 127.719L129.706 130.719L128.706 130.719L128.706 127.719ZM130.706 127.719L131.706 127.719L131.706 130.719L130.706 130.719L130.706 127.719ZM132.706 127.719L133.378 127.719L133.706 127.719L133.706 130.719L133.378 130.719L132.706 130.719L132.706 127.719ZM134.706 127.719L135.706 127.719L135.706 130.719L134.706 130.719L134.706 127.719ZM136.706 127.719L137.706 127.719L137.706 130.719L136.706 130.719L136.706 127.719ZM138.706 127.719L139.706 127.719L139.706 130.719L138.706 130.719L138.706 127.719ZM140.706 127.719L141.706 127.719L141.706 130.719L140.706 130.719L140.706 127.719ZM142.706 127.719L143.706 127.719L143.706 130.719L142.706 130.719L142.706 127.719ZM144.706 127.719L145.706 127.719L145.706 130.719L144.706 130.719L144.706 127.719ZM146.706 127.719L147.706 127.719L147.706 130.719L146.706 130.719L146.706 127.719ZM148.706 127.719L149.706 127.719L149.706 130.719L148.706 130.719L148.706 127.719ZM150.706 127.719L151.706 127.719L151.706 130.719L150.706 130.719L150.706 127.719ZM152.706 127.719L153.706 127.719L153.706 130.719L152.706 130.719L152.706 127.719ZM154.706 127.719L155.706 127.719L155.706 130.719L154.706 130.719L154.706 127.719ZM156.706 127.719L157.706 127.719L157.706 130.719L156.706 130.719L156.706 127.719ZM158.706 127.719L159.706 127.719L159.706 130.719L158.706 130.719L158.706 127.719ZM160.706 127.719L161.706 127.719L161.706 130.719L160.706 130.719L160.706 127.719ZM162.706 127.719L162.935 127.719L163.706 127.719L163.706 130.719L162.935 130.719L162.706 130.719L162.706 127.719ZM164.706 127.719L165.706 127.719L165.706 130.719L164.706 130.719L164.706 127.719ZM166.706 127.719L167.706 127.719L167.706 130.719L166.706 130.719L166.706 127.719ZM168.706 127.719L169.706 127.719L169.706 130.719L168.706 130.719L168.706 127.719ZM170.706 127.719L171.706 127.719L171.706 130.719L170.706 130.719L170.706 127.719ZM172.706 127.719L173.706 127.719L173.706 130.719L172.706 130.719L172.706 127.719ZM174.706 127.719L175.706 127.719L175.706 130.719L174.706 130.719L174.706 127.719ZM176.706 127.719L177.706 127.719L177.706 130.719L176.706 130.719L176.706 127.719ZM178.706 127.719L179.706 127.719L179.706 130.719L178.706 130.719L178.706 127.719ZM180.706 127.719L181.706 127.719L181.706 130.719L180.706 130.719L180.706 127.719ZM182.706 127.719L183.706 127.719L183.706 130.719L182.706 130.719L182.706 127.719ZM184.706 127.719L185.706 127.719L185.706 130.719L184.706 130.719L184.706 127.719ZM186.706 127.719L187.706 127.719L187.706 130.719L186.706 130.719L186.706 127.719ZM188.706 127.719L189.706 127.719L189.706 130.719L188.706 130.719L188.706 127.719ZM190.706 127.719L191.706 127.719L191.706 130.719L190.706 130.719L190.706 127.719Z"/>
		<path fill="yellow" d="M44.706 113.191L45.706 113.191L45.706 114.191L44.706 114.191L44.706 113.191ZM46.706 113.191L47.706 113.191L47.706 114.191L46.706 114.191L46.706 113.191ZM48.706 113.191L49.706 113.191L49.706 114.191L48.706 114.191L48.706 113.191ZM50.706 113.191L51.706 113.191L51.706 114.191L50.706 114.191L50.706 113.191ZM52.706 113.191L53.706 113.191L53.706 114.191L52.706 114.191L52.706 113.191ZM54.706 113.191L55.706 113.191L55.706 114.191L54.706 114.191L54.706 113.191ZM56.706 113.191L57.706 113.191L57.706 114.191L56.706 114.191L56.706 113.191ZM58.706 113.191L59.706 113.191L59.706 114.191L58.706 114.191L58.706 113.191ZM60.706 113.191L61.706 113.191L61.706 114.191L60.706 114.191L60.706 113.191ZM62.706 113.191L63.706 113.191L63.706 114.191L62.706 114.191L62.706 113.191ZM64.706 113.191L65.706 113.191L65.706 114.191L64.706 114.191L64.706 113.191ZM66.706 113.191L67.706 113.191L67.706 114.191L66.706 114.191L66.706 113.191ZM68.706 113.191L69.706 113.191L69.706 114.191L68.706 114.191L68.706 113.191ZM70.706 113.191L71.706 113.191L71.706 114.191L70.706 114.191L70.706 113.191ZM72.706 113.191L73.706 113.191L73.706 114.191L72.706 114.191L72.706 113.191ZM74.706 113.191L75.706 113.191L75.706 114.191L74.706 114.191L74.706 113.191ZM76.706 113.191L77.706 113.191L77.706 114.191L76.706 114.191L76.706 113.191ZM78.706 113.191L79.706 113.191L79.706 114.191L78.706 114.191L78.706 113.191ZM80.706 113.191L81.706 113.191L81.706 114.191L80.706 114.191L80.706 113.191ZM82.706 113.191L83.706 113.191L83.706 114.191L82.706 114.191L82.706 113.191ZM84.706 113.191L85.706 113.191L85.706 114.191L84.706 114.191L84.706 113.191ZM86.706 113.191L87.706 113.191L87.706 114.191L86.706 114.191L86.706 113.191ZM88.706 113.191L89.706 113.191L89.706 114.191L88.706 114.191L88.706 113.191ZM90.706 113.191L91.706 113.191L91.706 114.191L90.706 114.191L90.706 113.191ZM92.706 113.191L93.706 113.191L93.706 114.191L92.706 114.191L92.706 113.191ZM94.706 113.191L95.706 113.191L95.706 114.191L94.706 114.191L94.706 113.191ZM96.706 113.191L97.706 113.191L97.706 114.191L96.706 114.191L96.706 113.191ZM98.706 113.191L99.706 113.191L99.706 114.191L98.706 114.191L98.706 113.191ZM100.706 113.191L101.706 113.191L101.706 114.191L100.706 114.191L100.706 113.191ZM102.706 113.191L103.706 113.191L103.706 114.191L102.706 114.191L102.706 113.191ZM104.706 113.191L105.706 113.191L105.706 114.191L104.706 114.191L104.706 113.191ZM106.706 113.191L107.706 113.191L107.706 114.191L106.706 114.191L106.706 113.191ZM108.706 113.191L109.706 113.191L109.706 114.191L108.706 114.191L108.706 113.191ZM110.706 113.191L111.706 113.191L111.706 114.191L110.706 114.191L110.706 113.191ZM112.706 113.191L113.706 113.191L113.706 114.191L112.706 114.191L112.706 113.191ZM114.706 113.191L115.706 113.191L115.706 114.191L114.706 114.191L114.706 113.191ZM116.706 113.191L117.706 113.191L117.706 114.191L116.706 114.191L116.706 113.191ZM118.706 113.191L119.706 113.191L119.706 114.191L118.706 114.191L118.706 113.191ZM120.706 113.191L121.706 113.191L121.706 114.191L120.706 114.191L120.706 113.191ZM122.706 113.191L123.706 113.191L123.706 114.191L122.706 114.191L122.706 113.191ZM124.706 113.191L125.706 113.191L125.706 114.191L124.706 114.191L124.706 113.191ZM126.706 113.191L127.706 113.191L127.706 114.191L126.706 114.191L126.706 113.191ZM128.706 113.191L129.706 113.191L129.706 114.191L128.706 114.191L128.706 113.191ZM130.706 113.191L131.706 113.191L131.706 114.191L130.706 114.191L130.706 113.191ZM132.706 113.191L133.378 113.191L133.706 113.191L133.706 114.191L133.378 114.191L132.706 114.191L132.706 113.191ZM134.706 113.191L135.706 113.191L135.706 114.191L134.706 114.191L134.706 113.191ZM136.706 113.191L137.706 113.191L137.706 114.191L136.706 114.191L136.706 113.191ZM138.706 113.191L139.706 113.191L139.706 114.191L138.706 114.191L138.706 113.191ZM140.706 113.191L141.706 113.191L141.706 114.191L140.706 114.191L140.706 113.191ZM142.706 113.191L143.706 113.191L143.706 114.191L142.706 114.191L142.706 113.191ZM144.706 113.191L145.706 113.191L145.706 114.191L144.706 114.191L144.706 113.191ZM146.706 113.191L147.706 113.191L147.706 114.191L146.706 114.191L146.706 113.191ZM148.706 113.191L149.706 113.191L149.706 114.191L148.706 114.191L148.706 113.191ZM150.706 113.191L151.706 113.191L151.706 114.191L150.706 114.191L150.706 113.191ZM152.706 113.191L153.706 113.191L153.706 114.191L152.706 114.191L152.706 113.191ZM154.706 113.191L155.706 113.191L155.706 114.191L154.706 114.191L154.706 113.191ZM156.706 113.191L157.706 113.191L157.706 114.191L156.706 114.191L156.706 113.191ZM158.706 113.191L159.706 113.191L159.706 114.191L158.706 114.191L158.706 113.191ZM160.706 113.191L161.706 113.191L161.706 114.191L160.706 114.191L160.706 113.191ZM162.706 113.191L162.935 113.191L163.706 113.191L163.706 114.191L162.935 114.191L162.706 114.191L162.706 113.191ZM164.706 113.191L165.706 113.191L165.706 114.191L164.706 114.191L164.706 113.191ZM166.706 113.191L167.706 113.191L167.706 114.191L166.706 114.191L166.706 113.191ZM168.706 113.191L169.706 113.191L169.706 114.191L168.706 114.191L168.706 113.191ZM170.706 113.191L171.706 113.191L171.706 114.191L170.706 114.191L170.706 113.191ZM172.706 113.191L173.706 113.191L173.706 114.191L172.706 114.191L172.706 113.191ZM174.706 113.191L175.706 113.191L175.706 114.191L174.706 114.191L174.706 113.191ZM176.706 113.191L177.706 113.191L177.706 114.191L176.706 114.191L176.706 113.191ZM178.706 113.191L179.706 113.191L179.706 114.191L178.706 114.191L178.706 113.191ZM180.706 113.191L181.706 113.191L181.706 114.191L180.706 114.191L180.706 113.191ZM182.706 113.191L183.706 113.191L183.706 114.191L182.706 114.191L182.706 113.191ZM184.706 113.191L185.706 113.191L185.706 114.191L184.706 114.191L184.706 113.191ZM186.706 113.191L187.706 113.191L187.706 114.191L186.706 114.191L186.706 113.191ZM188.706 113.191L189.706 113.191L189.706 114.191L188.706 114.191L188.706 113.191ZM190.706 113.191L191.706 113.191L191.706 114.191L190.706 114.191L190.706 113.191Z"/>
		<path fill="yellow" d="M45.706 113.691Q45.706 113.789 45.6868 113.886Q45.6676 113.983 45.6299 114.074Q45.5922 114.165 45.5375 114.246Q45.4827 114.328 45.4131 114.398Q45.3435 114.468 45.2616 114.522Q45.1797 114.577 45.0887 114.615Q44.9977 114.652 44.9011 114.672Q44.8045 114.691 44.706 114.691Q44.6075 114.691 44.5109 114.672Q44.4143 114.652 44.3233 114.615Q44.2323 114.577 44.1504 114.522Q44.0685 114.468 43.9989 114.398Q43.9292 114.328 43.8745 114.246Q43.8198 114.165 43.7821 114.074Q43.7444 113.983 43.7252 113.886Q43.706 113.789 43.706 113.691Q43.706 113.592 43.7252 113.496Q43.7444 113.399 43.7821 113.308Q43.8198 113.217 43.8745 113.135Q43.9292 113.053 43.9989 112.984Q44.0685 112.914 44.1504 112.859Q44.2323 112.805 44.3233 112.767Q44.4143 112.729 44.5109 112.71Q44.6075 112.691 44.706 112.691Q44.8045 112.691 44.9011 112.71Q44.9977 112.729 45.0887 112.767Q45.1797 112.805 45.2616 112.859Q45.3435 112.914 45.4131 112.984Q45.4827 113.053 45.5375 113.135Q45.5922 113.217 45.6299 113.308Q45.6676 113.399 45.6868 113.496Q45.706 113.592 45.706 113.691Z"/>
		<path fill="yellow" d="M75.2632 113.691Q75.2632 113.789 75.244 113.886Q75.2248 113.983 75.1871 114.074Q75.1494 114.165 75.0947 114.246Q75.0399 114.328 74.9703 114.398Q74.9007 114.468 74.8188 114.522Q74.7369 114.577 74.6459 114.615Q74.5549 114.652 74.4583 114.672Q74.3617 114.691 74.2632 114.691Q74.1647 114.691 74.0681 114.672Q73.9715 114.652 73.8805 114.615Q73.7895 114.577 73.7076 114.522Q73.6257 114.468 73.5561 114.398Q73.4865 114.328 73.4317 114.246Q73.377 114.165 73.3393 114.074Q73.3016 113.983 73.2824 113.886Q73.2632 113.789 73.2632 113.691Q73.2632 113.592 73.2824 113.496Q73.3016 113.399 73.3393 113.308Q73.377 113.217 73.4317 113.135Q73.4865 113.053 73.5561 112.984Q73.6257 112.914 73.7076 112.859Q73.7895 112.805 73.8805 112.767Q73.9715 112.729 74.0681 112.71Q74.1647 112.691 74.2632 112.691Q74.3617 112.691 74.4583 112.71Q74.5549 112.729 74.6459 112.767Q74.7369 112.805 74.8188 112.859Q74.9007 112.914 74.9703 112.984Q75.0399 113.053 75.0947 113.135Q75.1494 113.217 75.1871 113.308Q75.2248 113.399 75.244 113.496Q75.2632 113.592 75.2632 113.691Z"/>
		<path fill="yellow" d="M104.82 113.691Q104.82 113.789 104.801 113.886Q104.782 113.983 104.744 114.074Q104.707 114.165 104.652 114.246Q104.597 114.328 104.527 114.398Q104.458 114.468 104.376 114.522Q104.294 114.577 104.203 114.615Q104.112 114.652 104.015 114.672Q103.919 114.691 103.82 114.691Q103.722 114.691 103.625 114.672Q103.529 114.652 103.438 114.615Q103.347 114.577 103.265 114.522Q103.183 114.468 103.113 114.398Q103.044 114.328 102.989 114.246Q102.934 114.165 102.897 114.074Q102.859 113.983 102.84 113.886Q102.82 113.789 102.82 113.691Q102.82 113.592 102.84 113.496Q102.859 113.399 102.897 113.308Q102.934 113.217 102.989 113.135Q103.044 113.053 103.113 112.984Q103.183 112.914 103.265 112.859Q103.347 112.805 103.438 112.767Q103.529 112.729 103.625 112.71Q103.722 112.691 103.82 112.691Q103.919 112.691 104.015 112.71Q104.112 112.729 104.203 112.767Q104.294 112.805 104.376 112.859Q104.458 112.914 104.527 112.984Q104.597 113.053 104.652 113.135Q104.707 113.217 104.744 113.308Q104.782 113.399 104.801 113.496Q104.82 113.592 104.82 113.691Z"/>
		<path fill="yellow" d="M134.378 113.691Q134.378 113.789 134.358 113.886Q134.339 113.983 134.301 114.074Q134.264 114.165 134.209 114.246Q134.154 114.328 134.085 114.398Q134.015 114.468 133.933 114.522Q133.851 114.577 133.76 114.615Q133.669 114.652 133.573 114.672Q133.476 114.691 133.378 114.691Q133.279 114.691 133.182 114.672Q133.086 114.652 132.995 114.615Q132.904 114.577 132.822 114.522Q132.74 114.468 132.67 114.398Q132.601 114.328 132.546 114.246Q132.491 114.165 132.454 114.074Q132.416 113.983 132.397 113.886Q132.378 113.789 132.378 113.691Q132.378 113.592 132.397 113.496Q132.416 113.399 132.454 113.308Q132.491 113.217 132.546 113.135Q132.601 113.053 132.67 112.984Q132.74 112.914 132.822 112.859Q132.904 112.805 132.995 112.767Q133.086 112.729 133.182 112.71Q133.279 112.691 133.378 112.691Q133.476 112.691 133.573 112.71Q133.669 112.729 133.76 112.767Q133.851 112.805 133.933 112.859Q134.015 112.914 134.085 112.984Q134.154 113.053 134.209 113.135Q134.264 113.217 134.301 113.308Q134.339 113.399 134.358 113.496Q134.378 113.592 134.378 113.691Z"/>
		<path fill="yellow" d="M163.935 113.691Q163.935 113.789 163.916 113.886Q163.896 113.983 163.859 114.074Q163.821 114.165 163.766 114.246Q163.712 114.328 163.642 114.398Q163.572 114.468 163.49 114.522Q163.408 114.577 163.317 114.615Q163.226 114.652 163.13 114.672Q163.033 114.691 162.935 114.691Q162.836 114.691 162.74 114.672Q162.643 114.652 162.552 114.615Q162.461 114.577 162.379 114.522Q162.297 114.468 162.228 114.398Q162.158 114.328 162.103 114.246Q162.049 114.165 162.011 114.074Q161.973 113.983 161.954 113.886Q161.935 113.789 161.935 113.691Q161.935 113.592 161.954 113.496Q161.973 113.399 162.011 113.308Q162.049 113.217 162.103 113.135Q162.158 113.053 162.228 112.984Q162.297 112.914 162.379 112.859Q162.461 112.805 162.552 112.767Q162.643 112.729 162.74 112.71Q162.836 112.691 162.935 112.691Q163.033 112.691 163.13 112.71Q163.226 112.729 163.317 112.767Q163.408 112.805 163.49 112.859Q163.572 112.914 163.642 112.984Q163.712 113.053 163.766 113.135Q163.821 113.217 163.859 113.308Q163.896 113.399 163.916 113.496Q163.935 113.592 163.935 113.691Z"/>
		<path fill="yellow" d="M193.492 113.691Q193.492 113.789 193.473 113.886Q193.454 113.983 193.416 114.074Q193.378 114.165 193.323 114.246Q193.269 114.328 193.199 114.398Q193.129 114.468 193.048 114.522Q192.966 114.577 192.875 114.615Q192.784 114.652 192.687 114.672Q192.59 114.691 192.492 114.691Q192.393 114.691 192.297 114.672Q192.2 114.652 192.109 114.615Q192.018 114.577 191.936 114.522Q191.855 114.468 191.785 114.398Q191.715 114.328 191.661 114.246Q191.606 114.165 191.568 114.074Q191.53 113.983 191.511 113.886Q191.492 113.789 191.492 113.691Q191.492 113.592 191.511 113.496Q191.53 113.399 191.568 113.308Q191.606 113.217 191.66 113.135Q191.715 113.053 191.785 112.984Q191.855 112.914 191.936 112.859Q192.018 112.805 192.109 112.767Q192.2 112.729 192.297 112.71Q192.393 112.691 192.492 112.691Q192.59 112.691 192.687 112.71Q192.784 112.729 192.875 112.767Q192.966 112.805 193.048 112.859Q193.129 112.914 193.199 112.984Q193.269 113.053 193.323 113.135Q193.378 113.217 193.416 113.308Q193.454 113.399 193.473 113.496Q193.492 113.592 193.492 113.691Z"/>
		<path fill="blue" d="M44.706 97.6633L45.706 97.6633L45.706 98.6633L44.706 98.6633L44.706 97.6633ZM46.706 97.6633L47.706 97.6633L47.706 98.6633L46.706 98.6633L46.706 97.6633ZM48.706 97.6633L49.706 97.6633L49.706 98.6633L48.706 98.6633L48.706 97.6633ZM50.706 97.6633L51.706 97.6633L51.706 98.6633L50.706 98.6633L50.706 97.6633ZM52.706 97.6633L53.706 97.6633L53.706 98.6633L52.706 98.6633L52.706 97.6633ZM54.706 97.6633L55.706 97.6633L55.706 98.6633L54.706 98.6633L54.706 97.6633ZM56.706 97.6633L57.706 97.6633L57.706 98.6633L56.706 98.6633L56.706 97.6633ZM58.706 97.6633L59.706 97.6633L59.706 98.6633L58.706 98.6633L58.706 97.6633ZM60.706 97.6633L61.706 97.6633L61.706 98.6633L60.706 98.6633L60.706 97.6633ZM62.706 97.6633L63.706 97.6633L63.706 98.6633L62.706 98.6633L62.706 97.6633ZM64.706 97.6633L65.706 97.6633L65.706 98.6633L64.706 98.6633L64.706 97.6633ZM66.706 97.6633L67.706 97.6633L67.706 98.6633L66.706 98.6633L66.706 97.6633ZM68.706 97.6633L69.706 97.6633L69.706 98.6633L68.706 98.6633L68.706 97.6633ZM70.706 97.6633L71.706 97.6633L71.706 98.6633L70.706 98.6633L70.706 97.6633ZM72.706 97.6633L73.706 97.6633L73.706 98.6633L72.706 98.6633L72.706 97.6633ZM74.706 97.6633L75.706 97.6633L75.706 98.6633L74.706 98.6633L74.706 97.6633ZM76.706 97.6633L77.706 97.6633L77.706 98.6633L76.706 98.6633L76.706 97.6633ZM78.706 97.6633L79.706 97.6633L79.706 98.6633L78.706 98.6633L78.706 97.6633ZM80.706 97.6633L81.706 97.6633L81.706 98.6633L80.706 98.6633L80.706 97.6633ZM82.706 97.6633L83.706 97.6633L83.706 98.6633L82.706 98.6633L82.706 97.6633ZM84.706 97.6633L85.706 97.6633L85.706 98.6633L84.706 98.6633L84.706 97.6633ZM86.706 97.6633L87.706 97.6633L87.706 98.6633L86.706 98.6633L86.706 97.6633ZM88.706 97.6633L89.706 97.6633L89.706 98.6633L88.706 98.6633L88.706 97.6633ZM90.706 97.6633L91.706 97.6633L91.706 98.6633L90.706 98.6633L90.706 97.6633ZM92.706 97.6633L93.706 97.6633L93.706 98.6633L92.706 98.6633L92.706 97.6633ZM94.706 97.6633L95.706 97.6633L95.706 98.6633L94.706 98.6633L94.706 97.6633ZM96.706 97.6633L97.706 97.6633L97.706 98.6633L96.706 98.6633L96.706 97.6633ZM98.706 97.6633L99.706 97.6633L99.706 98.6633L98.706 98.6633L98.706 97.6633ZM100.706 97.6633L101.706 97.6633L101.706 98.6633L100.706 98.6633L100.706 97.6633ZM102.706 97.6633L103.706 97.6633L103.706 98.6633L102.706 98.6633L102.706 97.6633ZM104.706 97.6633L105.706 97.6633L105.706 98.6633L104.706 98.6633L104.706 97.6633ZM106.706 97.6633L107.706 97.6633L107.706 98.6633L106.706 98.6633L106.706 97.6633ZM108.706 97.6633L109.706 97.6633L109.706 98.6633L108.706 98.6633L108.706 97.6633ZM110.706 97.6633L111.706 97.6633L111.706 98.6633L110.706 98.6633L110.706 97.6633ZM112.706 97.6633L113.706 97.6633L113.706 98.6633L112.706 98.6633L112.706 97.6633ZM114.706 97.6633L115.706 97.6633L115.706 98.6633L114.706 98.6633L114.706 97.6633ZM116.706 97.6633L117.706 97.6633L117.706 98.6633L116.706 98.6633L116.706 97.6633ZM118.706 97.6633L119.706 97.6633L119.706 98.6633L118.706 98.6633L118.706 97.6633ZM120.706 97.6633L121.706 97.6633L121.706 98.6633L120.706 98.6633L120.706 97.6633ZM122.706 97.6633L123.706 97.6633L123.706 98.6633L122.706 98.6633L122.706 97.6633ZM124.706 97.6633L125.706 97.6633L125.706 98.6633L124.706 98.6633L124.706 97.6633ZM126.706 97.6633L127.706 97.6633L127.706 98.6633L126.706 98.6633L126.706 97.6633ZM128.706 97.6633L129.706 97.6633L129.706 98.6633L128.706 98.6633L128.706 97.6633ZM130.706 97.6633L131.706 97.6633L131.706 98.6633L130.706 98.6633L130.706 97.6633ZM132.706 97.6633L133.378 97.6633L133.706 97.6633L133.706 98.6633L133.378 98.6633L132.706 98.6633L132.706 97.6633ZM134.706 97.6633L135.706 97.6633L135.706 98.6633L134.706 98.6633L134.706 97.6633ZM136.706 97.6633L137.706 97.6633L137.706 98.6633L136.706 98.6633L136.706 97.6633ZM138.706 97.6633L139.706 97.6633L139.706 98.6633L138.706 98.6633L138.706 97.6633ZM140.706 97.6633L141.706 97.6633L141.706 98.6633L140.706 98.6633L140.706 97.6633ZM142.706 97.6633L143.706 97.6633L143.706 98.6633L142.706 98.6633L142.706 97.6633ZM144.706 97.6633L145.706 97.6633L145.706 98.6633L144.706 98.6633L144.706 97.6633ZM146.706 97.6633L147.706 97.6633L147.706 98.6633L146.706 98.6633L146.706 97.6633ZM148.706 97.6633L149.706 97.6633L149.706 98.6633L148.706 98.6633L148.706 97.6633ZM150.706 97.6633L151.706 97.6633L151.706 98.6633L150.706 98.6633L150.706 97.6633ZM152.706 97.6633L153.706 97.6633L153.706 98.6633L152.706 98.6633L152.706 97.6633ZM154.706 97.6633L155.706 97.6633L155.706 98.6633L154.706 98.6633L154.706 97.6633ZM156.706 97.6633L157.706 97.6633L157.706 98.6633L156.706 98.6633L156.706 97.6633ZM158.706 97.6633L159.706 97.6633L159.706 98.6633L158.706 98.6633L158.706 97.6633ZM160.706 97.6633L161.706 97.6633L161.706 98.6633L160.706 98.6633L160.706 97.6633ZM162.706 97.6633L162.935 97.6633L163.706 97.6633L163.706 98.6633L162.935 98.6633L162.706 98.6633L162.706 97.6633ZM164.706 97.6633L165.706 97.6633L165.706 98.6633L164.706 98.6633L164.706 97.6633ZM166.706 97.6633L167.706 97.6633L167.706 98.6633L166.706 98.6633L166.706 97.6633ZM168.706 97.6633L169.706 97.6633L169.706 98.6633L168.706 98.6633L168.706 97.6633ZM170.706 97.6633L171.706 97.6633L171.706 98.6633L170.706 98.6633L170.706 97.6633ZM172.706 97.6633L173.706 97.6633L173.706 98.6633L172.706 98.6633L172.706 97.6633ZM174.706 97.6633L175.706 97.6633L175.706 98.6633L174.706 98.6633L174.706 97.6633ZM176.706 97.6633L177.706 97.6633L177.706 98.6633L176.706 98.6633L176.706 97.6633ZM178.706 97.6633L179.706 97.6633L179.706 98.6633L178.706 98.6633L178.706 97.6633ZM180.706 97.6633L181.706 97.6633L181.706 98.6633L180.706 98.6633L180.706 97.6633ZM182.706 97.6633L183.706 97.6633L183.706 98.6633L182.706 98.6633L182.706 97.6633ZM184.706 97.6633L185.706 97.6633L185.706 98.6633L184.706 98.6633L184.706 97.6633ZM186.706 97.6633L187.706 97.6633L187.706 98.6633L186.706 98.6633L186.706 97.6633ZM188.706 97.6633L189.706 97.6633L189.706 98.6633L188.706 98.6633L188.706 97.6633ZM190.706 97.6633L191.706 97.6633L191.706 98.6633L190.706 98.6633L190.706 97.6633Z"/>
		<path fill="blue" d="M45.706 98.1633Q45.706 98.2618 45.6868 98.3584Q45.6676 98.455 45.6299 98.546Q45.5922 98.637 45.5375 98.7189Q45.4827 98.8008 45.4131 98.8704Q45.3435 98.9401 45.2616 98.9948Q45.1797 99.0495 45.0887 99.0872Q44.9977 99.1249 44.9011 99.1441Q44.8045 99.1633 44.706 99.1633Q44.6075 99.1633 44.5109 99.1441Q44.4143 99.1249 44.3233 99.0872Q44.2323 99.0495 44.1504 98.9948Q44.0685 98.9401 43.9989 98.8704Q43.9292 98.8008 43.8745 98.7189Q43.8198 98.637 43.7821 98.546Q43.7444 98.455 43.7252 98.3584Q43.706 98.2618 43.706 98.1633Q43.706 98.0648 43.7252 97.9682Q43.7444 97.8716 43.7821 97.7806Q43.8198 97.6896 43.8745 97.6077Q43.9292 97.5258 43.9989 97.4562Q44.0685 97.3865 44.1504 97.3318Q44.2323 97.2771 44.3233 97.2394Q44.4143 97.2017 44.5109 97.1825Q44.6075 97.1633 44.706 97.1633Q44.8045 97.1633 44.9011 97.1825Q44.9977 97.2017 45.0887 97.2394Q45.1797 97.2771 45.2616 97.3318Q45.3435 97.3865 45.4131 97.4562Q45.4827 97.5258 45.5375 97.6077Q45.5922 97.6896 45.6299 97.7806Q45.6676 97.8716 45.6868 97.9682Q45.706 98.0648 45.706 98.1633Z"/>
		<path fill="blue" d="M75.2632 98.1633Q75.2632 98.2618 75.244 98.3584Q75.2248 98.455 75.1871 98.546Q75.1494 98.637 75.0947 98.7189Q75.0399 98.8008 74.9703 98.8704Q74.9007 98.9401 74.8188 98.9948Q74.7369 99.0495 74.6459 99.0872Q74.5549 99.1249 74.4583 99.1441Q74.3617 99.1633 74.2632 99.1633Q74.1647 99.1633 74.0681 99.1441Q73.9715 99.1249 73.8805 99.0872Q73.7895 99.0495 73.7076 98.9948Q73.6257 98.9401 73.5561 98.8704Q73.4865 98.8008 73.4317 98.7189Q73.377 98.637 73.3393 98.546Q73.3016 98.455 73.2824 98.3584Q73.2632 98.2618 73.2632 98.1633Q73.2632 98.0648 73.2824 97.9682Q73.3016 97.8716 73.3393 97.7806Q73.377 97.6896 73.4317 97.6077Q73.4865 97.5258 73.5561 97.4562Q73.6257 97.3865 73.7076 97.3318Q73.7895 97.2771 73.8805 97.2394Q73.9715 97.2017 74.0681 97.1825Q74.1647 97.1633 74.2632 97.1633Q74.3617 97.1633 74.4583 97.1825Q74.5549 97.2017 74.6459 97.2394Q74.7369 97.2771 74.8188 97.3318Q74.9007 97.3865 74.9703 97.4562Q75.0399 97.5258 75.0947 97.6077Q75.1494 97.6896 75.1871 97.7806Q75.2248 97.8716 75.244 97.9682Q75.2632 98.0648 75.2632 98.1633Z"/>
		<path fill="blue" d="M104.82 98.1633Q104.82 98.2618 104.801 98.3584Q104.782 98.455 104.744 98.546Q104.707 98.637 104.652 98.7189Q104.597 98.8008 104.527 98.8704Q104.458 98.9401 104.376 98.9948Q104.294 99.0495 104.203 99.0872Q104.112 99.1249 104.015 99.1441Q103.919 99.1633 103.82 99.1633Q103.722 99.1633 103.625 99.1441Q103.529 99.1249 103.438 99.0872Q103.347 99.0495 103.265 98.9948Q103.183 98.9401 103.113 98.8704Q103.044 98.8008 102.989 98.7189Q102.934 98.637 102.897 98.546Q102.859 98.455 102.84 98.3584Q102.82 98.2618 102.82 98.1633Q102.82 98.0648 102.84 97.9682Q102.859 97.8716 102.897 97.7806Q102.934 97.6896 102.989 97.6077Q103.044 97.5258 103.113 97.4562Q103.183 97.3865 103.265 97.3318Q103.347 97.2771 103.438 97.2394Q103.529 97.2017 103.625 97.1825Q103.722 97.1633 103.82 97.1633Q103.919 97.1633 104.015 97.1825Q104.112 97.2017 104.203 97.2394Q104.294 97.2771 104.376 97.3318Q104.458 97.3865 104.527 97.4562Q104.597 97.5258 104.652 97.6077Q104.707 97.6896 104.744 97.7806Q104.782 97.8716 104.801 97.9682Q104.82 98.0648 104.82 98.1633Z"/>
		<path fill="blue" d="M134.378 98.1633Q134.378 98.2618 134.358 98.3584Q134.339 98.455 134.301 98.546Q134.264 98.637 134.209 98.7189Q134.154 98.8008 134.085 98.8704Q134.015 98.9401 133.933 98.9948Q133.851 99.0495 133.76 99.0872Q133.669 99.1249 133.573 99.1441Q133.476 99.1633 133.378 99.1633Q133.279 99.1633 133.182 99.1441Q133.086 99.1249 132.995 99.0872Q132.904 99.0495 132.822 98.9948Q132.74 98.9401 132.67 98.8704Q132.601 98.8008 132.546 98.7189Q132.491 98.637 132.454 98.546Q132.416 98.455 132.397 98.3584Q132.378 98.2618 132.378 98.1633Q132.378 98.0648 132.397 97.9682Q132.416 97.8716 132.454 97.7806Q132.491 97.6896 132.546 97.6077Q132.601 97.5258 132.67 97.4562Q132.74 97.3865 132.822 97.3318Q132.904 97.2771 132.995 97.2394Q133.086 97.2017 133.182 97.1825Q133.279 97.1633 133.378 97.1633Q133.476 97.1633 133.573 97.1825Q133.669 97.2017 133.76 97.2394Q133.851 97.2771 133.933 97.3318Q134.015 97.3865 134.085 97.4562Q134.154 97.5258 134.209 97.6077Q134.264 97.6896 134.301 97.7806Q134.339 97.8716 134.358 97.9682Q134.378 98.0648 134.378 98.1633Z"/>
		<path fill="blue" d="M163.935 98.1633Q163.935 98.2618 163.916 98.3584Q163.896 98.455 163.859 98.546Q163.821 98.637 163.766 98.7189Q163.712 98.8008 163.642 98.8704Q163.572 98.9401 163.49 98.9948Q163.408 99.0495 163.317 99.0872Q163.226 99.1249 163.13 99.1441Q163.033 99.1633 162.935 99.1633Q162.836 99.1633 162.74 99.1441Q162.643 99.1249 162.552 99.0872Q162.461 99.0495 162.379 98.9948Q162.297 98.9401 162.228 98.8704Q162.158 98.8008 162.103 98.7189Q162.049 98.637 162.011 98.546Q161.973 98.455 161.954 98.3584Q161.935 98.2618 161.935 98.1633Q161.935 98.0648 161.954 97.9682Q161.973 97.8716 162.011 97.7806Q162.049 97.6896 162.103 97.6077Q162.158 97.5258 162.228 97.4562Q162.297 97.3865 162.379 97.3318Q162.461 97.2771 162.552 97.2394Q162.643 97.2017 162.74 97.1825Q162.836 97.1633 162.935 97.1633Q163.033 97.1633 163.13 97.1825Q163.226 97.2017 163.317 97.2394Q163.408 97.2771 163.49 97.3318Q163.572 97.3865 163.642 97.4562Q163.712 97.5258 163.766 97.6077Q163.821 97.6896 163.859 97.7806Q163.896 97.8716 163.916 97.9682Q163.935 98.0648 163.935 98.1633Z"/>
		<path fill="blue" d="M193.492 98.1633Q193.492 98.2618 193.473 98.3584Q193.454 98.455 193.416 98.546Q193.378 98.637 193.323 98.7189Q193.269 98.8008 193.199 98.8704Q193.129 98.9401 193.048 98.9948Q192.966 99.0495 192.875 99.0872Q192.784 99.1249 192.687 99.1441Q192.59 99.1633 192.492 99.1633Q192.393 99.1633 192.297 99.1441Q192.2 99.1249 192.109 99.0872Q192.018 99.0495 191.936 98.9948Q191.855 98.9401 191.785 98.8704Q191.715 98.8008 191.661 98.7189Q191.606 98.637 191.568 98.546Q191.53 98.455 191.511 98.3584Q191.492 98.2618 191.492 98.1633Q191.492 98.0648 191.511 97.9682Q191.53 97.8716 191.568 97.7806Q191.606 97.6896 191.66 97.6077Q191.715 97.5258 191.785 97.4562Q191.855 97.3865 191.936 97.3318Q192.018 97.2771 192.109 97.2394Q192.2 97.2017 192.297 97.1825Q192.393 97.1633 192.492 97.1633Q192.59 97.1633 192.687 97.1825Q192.784 97.2017 192.875 97.2394Q192.966 97.2771 193.048 97.3318Q193.129 97.3865 193.199 97.4562Q193.269 97.5258 193.323 97.6077Q193.378 97.6896 193.416 97.7806Q193.454 97.8716 193.473 97.9682Q193.492 98.0648 193.492 98.1633Z"/>
		<path fill="blue" d="M42.706 111.691L46.706 111.691L46.706 115.691L42.706 115.691L42.706 111.691Z"/>
		<path fill="blue" d="M72.2632 108.585L76.2632 108.585L76.2632 112.585L72.2632 112.585L72.2632 108.585Z"/>
		<path fill="blue" d="M101.82 111.691L105.82 111.691L105.82 115.691L101.82 115.691L101.82 111.691Z"/>
		<path fill="blue" d="M131.378 110.138L135.378 110.138L135.378 114.138L131.378 114.138L131.378 110.138Z"/>
		<path fill="blue" d="M160.935 108.585L164.935 108.585L164.935 112.585L160.935 112.585L160.935 108.585Z"/>
		<path fill="blue" d="M187.536 49.5806L191.536 49.5806L191.536 53.5806L187.536 53.5806L187.536 49.5806Z"/>
	</g>
	<clipPath id="cl_e">
		<rect width="204.16" height="225"/>
	</clipPath>
	<g clip-path="url(#cl_e)">
		<text transform="translate(102.08 20)" font-size="8" font-weight="600" font-family="Segoe UI" x="-74.689453, -67.751953, -65.544922, -59.646484, -57.373047, -54.306641, -51.240234, -46.912109, -43.728516, -39.400391, -34.560547, -30.720703, -26.392578, -24.185547, -18.849609, -14.521484, -11.337891, -7.8183594, -2.9785156, 0.54101563, 2.7480469, 7.6621094, 11.990234, 16.318359, 19.501953, 21.708984, 29.365234, 33.693359, 37.998047, 42.837891, 45.005859, 47.212891, 52.900391, 57.892578, 62.494141, 64.701172, 68.791016, " y="0, ">
				% Difference Versus Peer Mean: GC3 LD
		</text>
		<path fill="none" stroke="black" stroke-width="1" stroke-miterlimit="4" d="M44.706 36.053L192.492 36.053L192.492 129.219L44.706 129.219L44.706 36.053Z"/>
	</g>
	<clipPath id="cl_f">
		<rect x="25.7456" y="171.6225" width="152.66879" height="43.377502"/>
	</clipPath>
	<g clip-path="url(#cl_f)">
		<text transform="translate(60.7456 186.622)" font-size="5" font-family="Segoe UI" x="0, 3.4204102, 4.7900391, 6.7382813, 8.1079102, 10.107422, 11.477051, 14.172363, 16.467285, 17.836914, 20.932617, 24.038086, " y="0, ">
				+ / - 2x CV%
		</text>
		<path fill="yellow" d="M40.7456 188.217L41.7456 188.217L41.7456 189.217L40.7456 189.217M42.7456 188.217L43.7456 188.217L43.7456 189.217L42.7456 189.217M44.7456 188.217L45.7456 188.217L45.7456 189.217L44.7456 189.217M46.7456 188.217L47.7456 188.217L47.7456 189.217L46.7456 189.217M48.7456 188.217L49.7456 188.217L49.7456 189.217L48.7456 189.217M50.7456 188.217L51.7456 188.217L51.7456 189.217L50.7456 189.217M52.7456 188.217L53.7456 188.217L53.7456 189.217L52.7456 189.217M54.7456 188.217L55.7456 188.217L55.7456 189.217L54.7456 189.217"/>
		<path fill="yellow" d="M49.7456 188.717Q49.7456 188.815 49.7264 188.912Q49.7072 189.009 49.6695 189.1Q49.6318 189.191 49.5771 189.272Q49.5223 189.354 49.4527 189.424Q49.3831 189.494 49.3012 189.548Q49.2193 189.603 49.1283 189.641Q49.0373 189.678 48.9407 189.698Q48.8441 189.717 48.7456 189.717Q48.6471 189.717 48.5505 189.698Q48.4539 189.678 48.3629 189.641Q48.2719 189.603 48.19 189.548Q48.1081 189.494 48.0385 189.424Q47.9688 189.354 47.9141 189.272Q47.8594 189.191 47.8217 189.1Q47.784 189.009 47.7648 188.912Q47.7456 188.815 47.7456 188.717Q47.7456 188.618 47.7648 188.522Q47.784 188.425 47.8217 188.334Q47.8594 188.243 47.9141 188.161Q47.9688 188.079 48.0385 188.01Q48.1081 187.94 48.19 187.885Q48.2719 187.831 48.3629 187.793Q48.4539 187.755 48.5505 187.736Q48.6471 187.717 48.7456 187.717Q48.8441 187.717 48.9407 187.736Q49.0373 187.755 49.1283 187.793Q49.2193 187.831 49.3012 187.885Q49.3831 187.94 49.4527 188.01Q49.5223 188.079 49.5771 188.161Q49.6318 188.243 49.6695 188.334Q49.7072 188.425 49.7264 188.522Q49.7456 188.618 49.7456 188.717Z"/>
		<text transform="translate(131.873 186.622)" font-size="5" font-family="Segoe UI" x="0, 3.2250977, 6.1645508, 9.1040039, 10.314941, 11.525879, 14.140625, 17.084961, 18.45459, 20.808105, 22.019043, 26.325684, 27.536621, 29.230957, 30.600586, 32.109375, 35.529785, 36.899414, 38.847656, 40.217285, 42.216797, " y="0, ">
				Applied Limit (+ / -)
		</text>
		<path fill="blue" d="M111.873 188.217L112.873 188.217L112.873 189.217L111.873 189.217M113.873 188.217L114.873 188.217L114.873 189.217L113.873 189.217M115.873 188.217L116.873 188.217L116.873 189.217L115.873 189.217M117.873 188.217L118.873 188.217L118.873 189.217L117.873 189.217M119.873 188.217L120.873 188.217L120.873 189.217L119.873 189.217M121.873 188.217L122.873 188.217L122.873 189.217L121.873 189.217M123.873 188.217L124.873 188.217L124.873 189.217L123.873 189.217M125.873 188.217L126.873 188.217L126.873 189.217L125.873 189.217"/>
		<path fill="blue" d="M120.873 188.717Q120.873 188.815 120.854 188.912Q120.835 189.009 120.797 189.1Q120.759 189.191 120.705 189.272Q120.65 189.354 120.58 189.424Q120.511 189.494 120.429 189.548Q120.347 189.603 120.256 189.641Q120.165 189.678 120.068 189.698Q119.972 189.717 119.873 189.717Q119.775 189.717 119.678 189.698Q119.581 189.678 119.49 189.641Q119.399 189.603 119.318 189.548Q119.236 189.494 119.166 189.424Q119.096 189.354 119.042 189.272Q118.987 189.191 118.949 189.1Q118.912 189.009 118.892 188.912Q118.873 188.815 118.873 188.717Q118.873 188.618 118.892 188.522Q118.912 188.425 118.949 188.334Q118.987 188.243 119.042 188.161Q119.096 188.079 119.166 188.01Q119.236 187.94 119.318 187.885Q119.399 187.831 119.49 187.793Q119.581 187.755 119.678 187.736Q119.775 187.717 119.873 187.717Q119.972 187.717 120.068 187.736Q120.165 187.755 120.256 187.793Q120.347 187.831 120.429 187.885Q120.511 187.94 120.58 188.01Q120.65 188.079 120.705 188.161Q120.759 188.243 120.797 188.334Q120.835 188.425 120.854 188.522Q120.873 188.618 120.873 188.717Z"/>
		<text transform="translate(60.7456 195.811)" font-size="5" font-family="Segoe UI" x="0, 4.0917969, 5.4614258, 8.9672852, 10.178223, 11.743164, " y="0, ">
				% Diff
		</text>
		<path fill="none" stroke="#4E9A06" vector-effect="non-scaling-stroke" stroke-width="1" stroke-miterlimit="4" d="M40.7456 197.906L56.7456 197.906"/>
		<path fill="blue" d="M46.7456 195.906L50.7456 195.906L50.7456 199.906L46.7456 199.906L46.7456 195.906Z"/>
	</g>
</svg>
